<?xml version="1.0" encoding="UTF-8" standalone="no"?>
<!-- Created with Inkscape (http://www.inkscape.org/) -->

<svg
   width="210mm"
   height="297mm"
   viewBox="0 0 210 297"
   version="1.1"
   id="svg5"
   sodipodi:docname="dibujo.svg"
   inkscape:version="1.2 (dc2aedaf03, 2022-05-15)"
   inkscape:export-filename="dibujo.png"
   inkscape:export-xdpi="96"
   inkscape:export-ydpi="96"
   xmlns:inkscape="http://www.inkscape.org/namespaces/inkscape"
   xmlns:sodipodi="http://sodipodi.sourceforge.net/DTD/sodipodi-0.dtd"
   xmlns="http://www.w3.org/2000/svg"
   xmlns:svg="http://www.w3.org/2000/svg">
  <sodipodi:namedview
     id="namedview7"
     pagecolor="#ffffff"
     bordercolor="#999999"
     borderopacity="1"
     inkscape:pageshadow="0"
     inkscape:pageopacity="0"
     inkscape:pagecheckerboard="0"
     inkscape:document-units="mm"
     showgrid="false"
     inkscape:zoom="0.52410025"
     inkscape:cx="-599.12202"
     inkscape:cy="622.0184"
     inkscape:window-width="1920"
     inkscape:window-height="1017"
     inkscape:window-x="-8"
     inkscape:window-y="-8"
     inkscape:window-maximized="1"
     inkscape:current-layer="layer1"
     inkscape:showpageshadow="0"
     inkscape:deskcolor="#d1d1d1" />
  <defs
     id="defs2" />
  <g
     inkscape:label="Capa 1"
     inkscape:groupmode="layer"
     id="layer1">
    <path
       style="fill:#000000;stroke-width:0.791316"
       d="M 98.887529,245.36035 C 89.792938,243.96029 77.159074,238.91624 69.819342,233.75491 30.369307,206.01355 16.882498,144.13746 39.856577,96.288827 49.502902,76.198182 67.418981,58.767898 85.385363,51.994552 109.64892,42.84717 137.53974,49.483918 157.62912,69.185277 c 18.44344,18.087228 29.02937,43.509313 30.19697,72.517913 0.86818,21.56966 -2.78067,39.39131 -11.74538,57.36652 -11.32214,22.70212 -29.93369,39.04268 -50.88315,44.67435 -6.75127,1.81489 -19.80913,2.61706 -26.310031,1.61629 z m 18.248911,-2.42692 c 14.31129,-2.21213 26.91161,-8.68766 38.34823,-19.70784 15.15945,-14.60747 24.51142,-33.0905 28.68719,-56.69678 1.40684,-7.95309 1.59615,-11.52071 1.2399,-23.36831 -0.71918,-23.91818 -6.22127,-41.44525 -18.63965,-59.37727 C 152.63389,63.367781 133.31177,51.670554 111.89671,50.562728 83.834585,49.111043 58.132151,65.76963 43.33562,94.999397 38.219451,105.10611 35.666114,112.25947 33.215253,123.35231 c -2.403289,10.87752 -2.640752,33.78485 -0.46704,45.05393 1.683396,8.72715 6.650253,23.44997 10.255046,30.39811 16.065879,30.96661 45.58959,48.54111 74.133181,44.12908 z m -14.98732,-8.51328 c 0.56921,-4.13483 0.6249,-4.06089 -3.754791,-4.98564 -1.84676,-0.38995 -2.21682,-0.20628 -2.21682,1.1003 0,0.86261 0.36276,1.56838 0.80612,1.56838 0.44336,0 0.8061,0.37019 0.8061,0.82264 0,0.45245 -0.4033,0.58245 -0.89623,0.28887 -0.49294,-0.29356 -1.21288,-0.052 -1.599887,0.53675 -1.154666,1.75669 -0.844382,2.23571 1.448177,2.23571 1.50299,0 1.91779,0.24931 1.34044,0.80566 -1.30317,1.25577 -5.422968,-0.50102 -4.80632,-2.04956 0.267717,-0.67226 0.718331,-2.61788 1.00138,-4.3236 0.450462,-2.71456 0.726693,-3.03706 2.21508,-2.58615 0.93523,0.28335 3.604861,0.70411 5.932511,0.93504 2.32765,0.23092 4.2321,0.72614 4.2321,1.10045 0,0.37433 -0.50182,0.68061 -1.11515,0.68061 -1.22216,0 -2.08115,2.30552 -2.09829,5.63175 -0.007,1.1749 -0.42049,2.13617 -0.92098,2.13617 -0.62626,0 -0.74269,-1.21511 -0.37344,-3.89738 z m 12.22998,1.56701 c -0.25692,-1.28171 -0.67731,-3.37905 -0.93422,-4.66075 -0.28624,-1.42808 -0.13018,-2.33038 0.40305,-2.33038 0.4786,0 0.87572,0.43694 0.88251,0.97099 0.0233,1.83095 1.3067,2.97263 2.74416,2.44108 0.96944,-0.35848 1.30338,-1.10449 1.05499,-2.35669 -0.22288,-1.12345 0.0208,-1.83217 0.63005,-1.83217 0.58343,0 1.21405,1.60178 1.52774,3.88047 0.71138,5.16769 0.72107,4.97508 -0.26603,5.29214 -0.47663,0.1531 -0.86658,-0.64897 -0.86658,-1.78239 0,-1.69275 -0.32388,-2.01641 -1.81375,-1.81251 -1.44943,0.19836 -1.76714,0.67731 -1.58172,2.38441 0.31415,2.89202 -1.19459,2.72743 -1.7802,-0.1942 z m 9.4219,-0.97099 c -0.82239,-1.01356 -2.634,-5.76806 -2.634,-6.91284 0,-0.3635 0.3156,-0.66089 0.70135,-0.66089 0.38574,0 1.15837,1.57301 1.71698,3.49556 0.74792,2.57415 1.41967,3.49557 2.5484,3.49557 2.16211,0 2.51354,-1.51981 1.18837,-5.13911 -1.14138,-3.11738 -1.13759,-3.13077 1.12028,-3.95203 1.24605,-0.45321 2.5674,-0.55497 2.93634,-0.22612 0.36893,0.32886 1.48698,0.83555 2.48455,1.12598 1.5258,0.44423 1.81375,0.23502 1.81375,-1.3178 0,-1.91432 2.34594,-5.69209 2.39269,-3.85305 0.0141,0.55467 0.75114,2.4555 1.63787,4.22405 1.77727,3.54475 1.96555,4.47733 0.90391,4.47733 -0.38958,0 -1.15717,-1.04422 -1.70579,-2.32051 -1.06941,-2.48789 -2.42257,-2.45254 -2.42257,0.0633 0,1.27697 -0.26217,1.39987 -1.55924,0.73095 -2.40092,-1.23821 -2.61342,-0.99177 -1.28286,1.48767 1.44796,2.69822 1.50677,3.14575 0.41328,3.14575 -0.44913,0 -1.60966,-1.57301 -2.57896,-3.49557 -2.78158,-5.51707 -4.13394,-4.31184 -1.92656,1.71698 l 1.12679,3.07748 -2.59472,0.90414 c -3.2225,1.12289 -3.31569,1.12144 -4.27986,-0.0669 z m -39.916714,-1.81233 c -0.332512,-0.32053 -0.604583,-1.15373 -0.604583,-1.85155 0,-2.07899 -1.637726,-3.17456 -3.392631,-2.26953 -3.594369,1.85368 -2.813968,0.0311 1.121849,-2.62008 4.150131,-2.79551 4.292883,-2.83192 4.501027,-1.14786 0.316159,2.55796 -0.922143,8.56718 -1.625662,7.88902 z m 0.201532,-6.19564 c 0,-0.66607 -0.362744,-0.99499 -0.806115,-0.73095 -0.44336,0.26405 -0.806104,0.80902 -0.806104,1.21104 0,0.40202 0.362744,0.73095 0.806104,0.73095 0.443371,0 0.806115,-0.54497 0.806115,-1.21104 z m -7.26006,-2.01268 c 2.379198,-3.16493 3.142159,-5.06397 1.686125,-4.19682 -0.405495,0.2415 -0.89986,-4e-5 -1.09859,-0.53674 -0.451342,-1.21895 -4.354083,2.06336 -5.082318,4.27437 -0.342828,1.04085 -0.756033,1.2593 -1.332079,0.70421 -0.576046,-0.5551 -0.03019,-1.784 1.759618,-3.96164 2.154005,-2.62076 2.378687,-3.23682 1.322849,-3.62724 -0.699523,-0.25867 -1.040157,-0.87063 -0.756978,-1.3599 0.28318,-0.48927 -1.101282,0.6039 -3.07657,2.42928 -1.975288,1.82537 -3.795271,3.12244 -4.044408,2.88237 -0.249137,-0.24008 -0.284124,-2.08312 -0.07775,-4.09567 l 0.375199,-3.65916 -1.959694,2.26521 c -1.093128,1.26356 -2.181684,1.91909 -2.461715,1.48248 -0.27611,-0.43052 0.753492,-1.95538 2.288004,-3.38858 3.239965,-3.02608 3.314327,-3.34945 1.231742,-5.35628 -1.258509,-1.21273 -1.726411,-1.3064 -2.432243,-0.48685 -0.480672,0.55811 -0.618407,1.67078 -0.30606,2.47259 0.506245,1.2996 0.41655,1.33916 -0.826377,0.36442 -1.895322,-1.48639 -3.700635,0.049 -2.1604,1.8373 0.567532,0.65895 0.680932,1.1981 0.252003,1.1981 -0.878283,0 -3.889037,-2.98801 -3.375973,-3.35049 0.182018,-0.12859 1.918278,-1.41409 3.85835,-2.85669 l 3.527413,-2.62291 2.284681,2.66726 c 2.087634,2.43723 2.241636,3.03575 1.78556,6.93963 l -0.499132,4.27236 2.178838,-2.4829 2.178839,-2.4829 4.677007,3.59763 4.677007,3.59764 -2.495464,3.30373 c -1.372507,1.81706 -2.951182,3.32538 -3.508171,3.35182 -0.566273,0.0268 0.0556,-1.37301 1.410698,-3.17563 z m 64.694932,-1.64977 c -0.45179,-2.66003 -0.73697,-4.92891 -0.63374,-5.04196 0.10327,-0.11304 1.87434,0.70288 3.93582,1.81314 5.20563,2.80367 6.2152,2.03858 2.40414,-1.82197 -3.35419,-3.39774 -3.0976,-4.2612 0.93953,-3.16162 4.31179,1.17439 4.89051,0.80803 2.50836,-1.58795 -1.2277,-1.23483 -1.89033,-2.44876 -1.4725,-2.69761 0.92911,-0.55332 6.80322,5.59397 6.21771,6.50689 -0.22993,0.35849 -1.58969,0.32801 -3.02171,-0.0678 -4.48747,-1.24018 -5.11423,-0.90363 -2.74847,1.47588 2.15353,2.16605 2.16172,2.21379 0.61165,3.56557 -1.02464,0.89356 -2.16546,1.18836 -3.27981,0.84754 -2.14419,-0.65578 -4.00719,0.7596 -3.49314,2.65383 0.21454,0.79055 0.0443,1.64325 -0.37818,1.89489 -0.42786,0.25482 -1.13217,-1.68527 -1.58966,-4.37888 z m 2.6205,-1.34086 c 0.27402,-0.42723 0.11406,-0.77678 -0.35547,-0.77678 -0.46953,0 -0.85369,0.34955 -0.85369,0.77678 0,0.42724 0.15996,0.7768 0.35548,0.7768 0.19551,0 0.57967,-0.34956 0.85368,-0.7768 z m -41.51477,2.95281 c -36.803315,-3.95978 -62.786485,-51.62172 -53.595231,-98.31175 4.035096,-20.49767 14.399623,-38.242419 28.8134,-49.330453 11.3576,-8.737011 26.521501,-12.362276 40.097961,-9.586308 19.34678,3.955819 36.58368,20.219231 45.0694,42.524031 13.05068,34.30378 6.18637,74.52967 -16.70897,97.91718 -12.45509,12.72283 -27.54548,18.52289 -43.67656,16.7873 z m 17.78968,-3.39647 c 3.20097,-0.89225 5.19841,-2.08424 7.42767,-4.43251 3.35217,-3.5311 4.05233,-5.27597 3.66055,-9.12232 -0.34477,-3.3847 -3.9491,-5.19931 -11.70745,-5.89415 -3.74177,-0.33511 -5.9475,-0.89433 -6.21926,-1.57679 -0.50885,-1.27782 -4.13067,-1.37235 -7.62366,-0.19897 -2.03014,0.68197 -3.63656,0.57667 -7.810031,-0.51195 -2.889812,-0.75377 -5.421578,-1.6315 -5.626161,-1.95048 -0.204582,-0.31899 1.401783,-1.80793 3.569721,-3.30879 3.46538,-2.39908 4.538051,-2.73157 8.876841,-2.75158 2.71432,-0.0125 5.34284,-0.26554 5.84114,-0.56231 1.15126,-0.68564 -2.25471,-2.58282 -4.70549,-2.62101 -0.9714,-0.0151 -1.99037,-0.37709 -2.26439,-0.80432 -1.47318,-2.29698 -15.854557,1.58557 -20.993808,5.66768 l -2.906128,2.30835 4.854638,2.95787 c 2.670043,1.62684 5.508275,2.99987 6.307179,3.05119 0.798894,0.0514 3.447665,0.15908 5.886168,0.23944 3.799471,0.12522 4.467521,0.37445 4.670631,1.74256 0.13036,0.87805 -0.50446,2.24306 -1.4107,3.03337 -1.178951,1.02813 -1.647711,2.39915 -1.647711,4.81927 0,3.19697 0.20986,3.50741 3.829031,5.66415 2.10598,1.25499 4.28556,2.99954 4.84351,3.87679 1.27481,2.00429 6.74216,2.16004 13.14771,0.37451 z M 85.972876,189.76588 c 3.174062,-1.50478 8.71321,-3.34333 12.309223,-4.08567 5.948241,-1.22794 6.457401,-1.47649 5.642791,-2.75462 -0.71526,-1.12221 -0.58859,-1.62452 0.6296,-2.49656 0.83875,-0.60042 1.87176,-1.20305 2.29556,-1.33918 0.4238,-0.13614 0.96413,-2.68302 1.20074,-5.65976 0.23661,-2.97673 0.71998,-5.95541 1.07417,-6.61928 1.07733,-2.01934 -0.50991,-3.44347 -3.55596,-3.19058 -1.52887,0.12692 -3.02284,-0.14823 -3.31993,-0.61145 -0.29709,-0.46322 -0.89374,-0.63164 -1.3259,-0.37428 -0.43214,0.25737 -1.352641,0.0146 -2.045551,-0.5396 -0.6929,-0.55413 -2.03733,-1.38764 -2.98761,-1.85224 -1.301209,-0.63615 -1.668871,-1.43298 -1.489177,-3.22745 0.20936,-2.09068 -0.05332,-2.439 -2.142755,-2.84169 -1.844904,-0.35557 -2.597738,-1.09073 -3.34187,-3.26345 -0.528277,-1.5425 -0.784918,-2.97372 -0.570312,-3.18053 0.214605,-0.20679 0.807852,0.77791 1.31831,2.18824 0.740759,2.04656 1.082555,2.32899 1.693089,1.39903 0.42073,-0.64085 0.80668,-2.38863 0.857662,-3.88395 0.07504,-2.20103 0.19253,-2.38271 0.61693,-0.95405 0.431437,1.45235 0.800349,0.9291 2.084062,-2.95595 1.896511,-5.73957 2.560051,-6.32549 2.315661,-2.04481 -0.11698,2.04882 0.63824,0.069 2.0585,-5.39664 1.233791,-4.74797 2.711671,-9.72236 3.284161,-11.0542 1.18619,-2.75955 0.56775,-6.33566 -1.09568,-6.33566 -0.82553,0 -1.0113,0.76029 -0.71171,2.91297 0.29234,2.1007 -0.16562,4.10432 -1.642351,7.18532 -2.2873,4.77214 -3.01514,5.70579 -6.779113,8.69602 -1.528735,1.21446 -2.27058,2.29358 -1.778306,2.58675 0.971648,0.57868 4.804284,-1.6199 4.804284,-2.75596 0,-0.41738 0.375255,-0.75889 0.833895,-0.75889 0.45864,0 -0.72031,2.12969 -2.619867,4.73265 l -3.453761,4.73266 -0.25019,-2.79068 c -0.231991,-2.58769 -0.442774,-2.79067 -2.897984,-2.79067 -1.528246,0 -3.153973,-0.57478 -3.84494,-1.35938 -1.502021,-1.70557 -1.319602,-8.63864 0.252547,-9.59848 0.995658,-0.60788 0.410686,-1.01876 -1.119026,-0.78601 -0.332523,0.0506 -0.604583,-0.43234 -0.604583,-1.0732 0,-0.64085 0.362743,-1.16518 0.806114,-1.16518 0.443361,0 0.806104,-0.6255 0.806104,-1.39001 0,-0.98779 0.607993,-1.38114 2.101219,-1.35937 l 2.101208,0.0306 0.22831,-11.65189 c 0.125573,-6.40853 0.470507,-12.218495 0.766512,-12.911027 0.33881,-0.792671 0.06211,-1.435195 -0.746912,-1.734352 -1.043176,-0.385745 -1.184962,-1.202697 -0.753145,-4.339532 0.530428,-3.853103 0.523489,-3.868226 -2.38872,-5.20645 -2.355395,-1.082358 -2.92069,-1.77384 -2.92069,-3.572675 0,-2.149851 0.06483,-2.186802 1.791586,-1.021316 0.985375,0.66508 2.940312,1.209235 4.34431,1.209235 3.518969,0 5.973332,2.129018 6.268489,5.437545 0.133392,1.495325 0.537606,3.376801 0.898253,4.181057 0.390532,0.870912 0.278261,2.044704 -0.27762,2.902431 -0.581041,0.896564 -0.933327,5.206844 -0.933327,11.419514 0,8.97732 0.141644,9.98174 1.410687,10.00296 0.775886,0.0129 1.831846,-0.29531 2.346586,-0.68505 0.57299,-0.43387 1.12999,-0.40596 1.43651,0.072 0.27535,0.42932 1.04666,0.57868 1.714011,0.33191 0.66736,-0.24678 1.83469,0.0306 2.59405,0.61652 3.27231,2.52461 5.18675,3.2074 5.90999,2.1078 1.00647,-1.53026 0.86969,-2.59124 -0.66659,-5.1707 -1.1213,-1.8827 -1.20348,-2.67899 -0.44258,-4.28828 1.60691,-3.39847 9.88071,-4.50241 9.88071,-1.31832 0,1.00375 -0.66846,1.34601 -2.61986,1.34142 -4.80635,-0.0113 -6.24738,0.23038 -6.24738,1.04781 0,0.96269 2.58399,0.67241 3.36833,-0.37839 0.3008,-0.40301 0.8011,1.43216 1.11175,4.07816 0.31066,2.64599 0.79005,4.80554 1.06531,4.799 1.37298,-0.0327 2.5429,-1.47839 3.00742,-3.71649 0.41514,-2.00017 0.25377,-2.48596 -0.82576,-2.48596 -1.10926,0 -1.16164,-0.19062 -0.30229,-1.10024 1.6511,-1.74771 2.49662,-0.094 1.90285,3.72151 -0.37901,2.43549 -1.00336,3.65445 -2.03311,3.96939 -1.73021,0.52918 -1.34166,3.50765 0.45759,3.50765 0.61332,0 1.11744,0.26217 1.12024,0.58259 0.002,0.32043 1.02325,1.14055 2.26766,1.82251 2.57534,1.41132 4.96998,5.70333 5.00789,8.97577 0.0325,2.80025 0.86888,3.83261 6.89537,8.51057 2.69298,2.09039 6.06624,4.75557 7.49611,5.92263 l 2.59978,2.12192 -1.62365,3.53699 -1.62363,3.53698 -5.07105,-2.44961 c -2.78908,-1.34728 -5.20716,-2.56846 -5.37349,-2.7137 -0.16635,-0.14526 0.30227,-1.72047 1.04137,-3.50047 0.73909,-1.77998 1.23794,-3.30122 1.10855,-3.38049 -5.90531,-3.61782 -8.60485,-5.09948 -9.2911,-5.09948 -0.46945,0 -1.90921,1.15859 -3.19946,2.57466 -1.29025,1.41606 -2.77883,2.4356 -3.30795,2.26564 -1.41462,-0.45439 -1.17476,1.90596 0.24711,2.43174 0.90232,0.33365 1.20917,1.72181 1.20917,5.47008 0,2.76262 0.36886,5.95782 0.81968,7.10043 0.88904,2.25332 0.48303,4.11021 -2.45526,11.22913 -3.1889,7.72612 -3.63277,9.89097 -2.59125,12.63812 l 0.95138,2.50933 -1.66252,-1.92404 c -2.09046,-2.4193 -1.79641,-4.39152 2.16269,-14.50573 l 2.99484,-7.65079 -1.62338,-4.27235 c -2.79428,-7.35388 -3.26545,-8.80069 -4.49019,-13.78806 -1.22444,-4.9861 -1.10645,-6.35406 0.25123,-2.91297 0.74364,1.88477 2.41833,2.70856 2.41833,1.18955 0,-0.41381 0.57605,-0.5394 1.28011,-0.27905 0.9863,0.36472 1.21757,0.0471 1.00764,-1.38376 -0.21732,-1.4813 -0.99679,-2.02539 -3.85169,-2.68856 -1.96858,-0.45729 -3.69167,-1.1564 -3.8291,-1.55358 -0.35345,-1.02151 3.82877,-0.77942 6.01526,0.3482 1.00619,0.51891 2.17923,0.73516 2.60676,0.48054 0.47179,-0.28099 0.58406,0.46818 0.28562,1.90606 -0.71683,3.45381 1.06778,2.98838 2.0858,-0.54398 0.46172,-1.60213 0.84154,-4.43598 0.844,-6.29745 0.003,-2.71976 -0.23772,-3.2949 -1.22884,-2.92841 -0.9803,0.3625 -1.19463,-0.0979 -1.04463,-2.24408 0.24764,-3.54331 -1.39639,-5.25525 -3.01602,-3.14065 -0.68056,0.88855 -1.15491,1.0937 -1.15491,0.49949 0,-0.5546 -0.47273,-0.83356 -1.05053,-0.6199 -0.61046,0.22574 -1.48296,-0.55295 -2.08285,-1.85887 -0.56776,-1.23603 -1.2981,-2.24733 -1.62297,-2.24733 -1.04441,0 -2.78162,10.13633 -1.88523,11.00011 1.4887,1.43456 4.6043,0.4134 4.90046,-1.60615 0.24298,-1.657 0.44468,-1.50247 1.77434,1.35938 1.68121,3.61853 2.89231,4.07011 3.97223,1.48112 0.65965,-1.58144 0.7339,-1.50519 0.78013,0.80117 0.0694,3.4617 -2.05477,4.21731 -4.30989,1.53311 -1.47828,-1.75955 -1.81966,-1.86322 -2.78437,-0.84558 -0.68869,0.72649 -1.81818,0.98605 -3.02292,0.69467 -2.24597,-0.5432 -2.28367,-0.33178 -0.71466,4.00805 0.74641,2.06458 1.0061,4.53809 0.70137,6.68053 -0.28229,1.98459 -0.10164,4.09042 0.43364,5.05417 0.68862,1.2399 0.68406,2.01238 -0.0182,3.09609 -0.67947,1.04843 -0.70195,2.06404 -0.0821,3.70765 l 0.85375,2.26368 0.088,-3.10718 0.088,-3.10717 2.46199,5.32158 2.46199,5.32158 -1.65857,4.38832 c -0.91222,2.41358 -2.15939,6.55445 -2.77149,9.20191 -0.96545,4.17584 -0.95497,5.12783 0.0792,7.18533 1.32752,2.64135 2.67545,2.99424 4.2875,1.12249 0.91497,-1.06238 0.8393,-1.42484 -0.50589,-2.42316 -1.4634,-1.08606 -1.31028,-1.14078 2.04571,-0.73096 10.18191,1.24338 20.88512,6.32598 28.49361,13.53068 2.36868,2.24298 4.49304,4.07816 4.72078,4.07816 0.73319,0 6.0643,-8.16099 8.99724,-13.7732 7.03273,-13.45725 9.7994,-25.80065 9.71004,-43.32102 -0.1088,-21.30408 -4.81603,-36.79568 -15.88782,-52.28678 C 143.0589,81.312117 129.22576,72.040646 116.47863,69.692443 94.674152,65.675746 71.70866,78.961822 59.30746,102.76732 43.940763,132.2654 45.934421,171.01471 64.169536,197.26739 l 4.129932,5.94578 5.951252,-5.35567 c 3.695324,-3.32551 8.138853,-6.39277 11.722254,-8.09162 z m 14.235204,-30.98644 c 0,-2.58492 -1.025621,-3.57866 -3.693441,-3.57866 -1.512503,0 -1.498094,3.58653 0.0166,4.14664 0.79434,0.29373 1.26438,-0.2309 1.49144,-1.66468 0.25854,-1.63253 0.35815,-1.45208 0.45234,0.8194 0.15054,3.63064 1.733001,3.88386 1.733001,0.2773 z m 0.34185,-13.67696 c 0.70936,-4.91321 1.82521,-10.85568 2.47966,-13.20547 1.39982,-5.02601 1.60618,-8.11476 0.4105,-6.14433 -0.56901,0.9377 -7.262581,26.32025 -7.262581,27.5403 0,0.21442 2.62761,0.921 2.95203,0.79382 0.0719,-0.0281 0.71104,-4.07111 1.420391,-8.98432 z m 35.92303,3.86147 c -1.47389,-0.89798 -2.40817,-0.9534 -2.40817,-0.14281 0,0.3363 0.81162,0.67039 1.80358,0.7424 1.41748,0.10294 1.54692,-0.0255 0.60459,-0.59959 z m -5.22956,-3.53298 c -4.66984,-3.77084 -5.65102,-4.69111 -6.60302,-6.19308 -0.88237,-1.39209 -0.96407,-1.4017 -1.00764,-0.11846 -0.0516,1.52043 2.98204,4.58026 6.80455,6.86326 3.34685,1.99891 3.68133,1.76999 0.80611,-0.55172 z m -26.17674,-6.46442 c -0.48959,-1.75207 -1.09793,-3.18558 -1.35186,-3.18558 -0.49887,0 0.40564,5.40162 1.0808,6.4543 0.9493,1.48013 1.09776,-0.31024 0.27106,-3.26872 z m -14.40296,-2.1026 c 4.871879,-2.38697 10.26706,-11.40802 9.222129,-15.41993 -0.88151,-3.38446 -2.09594,-2.16806 -2.0991,2.10249 -0.004,6.50806 -4.114142,11.18098 -11.081047,12.60078 -2.563474,0.52243 -3.169925,1.17507 -2.073594,2.23153 0.61933,0.5968 2.88099,0.0288 6.031612,-1.51487 z m 33.72775,-1.47137 c 0,-1.12043 -0.46426,-1.94199 -1.09739,-1.94199 -0.73587,0 -0.97047,0.63977 -0.71214,1.94199 0.21189,1.06808 0.70571,1.94198 1.09738,1.94198 0.39169,0 0.71215,-0.8739 0.71215,-1.94198 z m -33.213459,-3.47119 c 3.852975,-2.68957 4.864408,-4.25132 5.119788,-7.90549 0.22104,-3.16275 -0.57538,-4.66902 -2.312682,-4.37396 -0.841993,0.143 -1.31515,-0.43431 -1.415585,-1.72718 -0.08296,-1.06809 -0.41732,-4.73843 -0.743013,-8.15632 -0.437323,-4.58927 -0.360409,-5.90964 0.294126,-5.04914 0.680291,0.89436 0.864058,0.17215 0.79064,-3.10717 -0.141622,-6.325654 -0.03822,-7.130499 0.847911,-6.602733 0.44336,0.264047 0.806104,0.109897 0.806104,-0.342552 0,-0.457116 -1.611806,-0.822636 -3.6275,-0.822636 -2.522811,0 -3.627515,0.322034 -3.627515,1.057468 0,0.706777 0.662874,0.935363 1.998808,0.689272 1.948655,-0.358958 1.970254,-0.312393 0.860812,1.855501 -0.6259,1.223034 -1.35232,3.27237 -1.614293,4.55407 -0.463297,2.26678 -0.451276,2.27739 0.44032,0.38841 0.553535,-1.17278 1.067099,-1.55547 1.296564,-0.96616 0.20897,0.53671 0.711718,0.77824 1.117213,0.53675 1.196613,-0.71265 0.842698,0.43877 -0.546282,1.77723 -0.871522,0.83982 -1.130291,1.97527 -0.806119,3.53717 0.262596,1.26518 0.485498,5.66481 0.495358,9.77694 l 0.01792,7.47663 1.53917,-1.93037 c 1.994193,-2.50105 2.970902,-1.53229 1.62109,1.60791 -1.565308,3.64152 -4.754967,6.14839 -7.823024,6.14839 -2.66342,0 -3.019931,0.44259 -2.138802,2.65524 0.756348,1.89932 3.773216,1.46066 7.408983,-1.07727 z m 32.004289,-0.0244 c 0.27401,-0.42724 -0.0673,-0.7768 -0.75854,-0.7768 -0.69121,0 -1.25674,0.34956 -1.25674,0.7768 0,0.42723 0.34134,0.77679 0.75853,0.77679 0.4172,0 0.98273,-0.34956 1.25675,-0.77679 z m -1.20917,-2.28453 c 0,-0.40202 -0.36275,-0.94699 -0.80611,-1.21104 -0.44336,-0.26404 -0.80612,0.0648 -0.80612,0.73094 0,0.66608 0.36276,1.21104 0.80612,1.21104 0.44336,0 0.80611,-0.32892 0.80611,-0.73094 z m -35.468959,-3.67087 c 0,-0.56965 -0.483658,-1.03572 -1.074809,-1.03572 -0.591151,0 -1.074819,0.46607 -1.074819,1.03572 0,0.56964 0.483668,1.03571 1.074819,1.03571 0.591151,0 1.074809,-0.46607 1.074809,-1.03571 z m 28.213949,-2.24542 c 0,-0.57391 -0.5955,-1.36462 -1.32334,-1.75712 -0.93062,-0.50187 -1.19447,-1.36313 -0.88914,-2.90234 0.4938,-2.48917 0.003,-4.22915 -1.1919,-4.22915 -0.50975,0 -0.63083,1.668 -0.32423,4.46656 0.33177,3.02844 0.23614,4.0914 -0.29703,3.30138 -0.43249,-0.64087 -0.7919,-0.84317 -0.79869,-0.44958 -0.007,0.39361 0.56586,1.33131 1.27256,2.08381 1.39276,1.483 3.55177,1.17083 3.55177,-0.51356 z m -0.21832,-14.01866 c -0.26788,-0.25813 -0.96314,-0.28572 -1.54505,-0.0614 -0.64306,0.24796 -0.45205,0.43203 0.48703,0.46931 0.84977,0.0338 1.32588,-0.14987 1.05802,-0.40799 z M 92.792588,89.626584 c -0.133424,-1.31731 -0.476567,-2.22033 -0.762538,-2.006712 -0.285971,0.213617 -1.252429,-0.250378 -2.147689,-1.031103 -0.895256,-0.780724 -2.328605,-1.305079 -3.185247,-1.165233 -0.85663,0.139845 -2.157359,-0.225462 -2.890513,-0.811794 -0.767478,-0.613788 -1.333002,-0.719696 -1.333002,-0.249638 0,1.164374 2.33271,3.257768 3.630193,3.257768 0.603182,0 1.82855,0.990409 2.723035,2.20091 2.243563,3.036186 4.28282,2.936326 3.965761,-0.194198 z M 153.61592,211.86173 c -2.58062,-2.347 -3.12621,-3.22297 -2.21682,-3.55925 0.66345,-0.24534 1.20627,-0.88586 1.20627,-1.42337 0,-1.2465 3.26779,-5.28798 3.83428,-4.74209 0.23431,0.22579 0.005,0.89836 -0.50765,1.49462 -0.75196,0.87309 -0.20887,1.5384 2.79048,3.41848 2.18601,1.37027 3.35849,2.55218 2.83883,2.86168 -0.48693,0.28999 -2.10064,-0.36599 -3.58603,-1.45774 -3.07809,-2.26239 -4.20099,-2.46293 -4.83771,-0.864 -0.26573,0.66729 0.67818,2.07251 2.33209,3.47183 2.58964,2.19104 3.57724,3.97754 2.17391,3.93246 -0.33252,-0.0109 -2.14496,-1.42036 -4.02765,-3.13262 z m -98.858895,-3.49399 c -0.245717,-0.61704 -0.0569,-1.12189 0.419579,-1.12189 0.476491,0 2.251833,-1.05743 3.945222,-2.34982 2.212186,-1.68837 3.249412,-2.08393 3.684694,-1.40523 0.333207,0.51952 0.202367,1.07419 -0.290738,1.23258 -0.493116,0.15838 -2.340051,1.2956 -4.104284,2.52712 -2.538205,1.77178 -3.30096,2.00497 -3.654473,1.11724 z m 105.887795,-5.03841 c -1.43224,-2.15075 -2.46672,-4.0019 -2.29883,-4.11364 0.79197,-0.52716 9.57552,0.49188 9.57552,1.11092 0,0.38769 -0.88245,0.7049 -1.96097,0.7049 -2.26061,0 -3.53309,2.5731 -2.09706,4.24048 0.55182,0.64071 0.6105,1.23823 0.14864,1.51329 -0.41978,0.25 -1.93506,-1.30517 -3.3673,-3.45595 z m 1.71757,-2.52791 c -1.03464,-0.997 -2.08384,-0.22643 -1.31786,0.96787 0.29671,0.46263 0.90876,0.62121 1.36013,0.3524 0.55057,-0.3279 0.53667,-0.76239 -0.0422,-1.32027 z m -110.062839,3.95421 c -2.590155,-3.56346 -0.574428,-7.60808 3.791638,-7.60808 2.095702,0 4.61738,2.42765 4.61738,4.4452 0,1.71618 -1.487644,1.07681 -1.757685,-0.75544 -0.468173,-3.17651 -6.303434,-2.426 -6.303434,0.81074 0,0.66172 0.567755,1.80766 1.261675,2.54654 0.77041,0.82034 0.948834,1.52975 0.458215,1.82195 -0.441916,0.26318 -1.37242,-0.30424 -2.067789,-1.26091 z m 115.243089,-6.79356 c -0.28732,-0.44799 -0.13824,-0.81452 0.33128,-0.81452 0.46953,0 0.85369,-0.5651 0.85369,-1.25579 0,-0.94654 -0.44664,-1.12105 -1.81375,-0.70867 -3.38134,1.01998 -4.98003,0.83673 -5.28275,-0.60549 -0.40927,-1.94983 0.46233,-3.84642 1.48718,-3.23606 0.59292,0.35312 0.58278,0.81813 -0.0334,1.53365 -1.29288,1.50117 0.29876,2.13144 2.70958,1.07294 2.5198,-1.10634 4.54543,-0.42614 4.54543,1.52635 0,1.8451 -2.04363,3.66253 -2.7972,2.48759 z M 47.971996,196.99219 c -1.173843,-1.13115 -1.273289,-2.95181 -0.161223,-2.95181 0.443371,0 0.715431,0.43695 0.604583,0.97099 -0.110837,0.53405 0.3426,0.97099 1.007646,0.97099 0.665046,0 1.325184,-0.78727 1.466991,-1.74949 0.394256,-2.6752 2.847788,-3.58929 4.606787,-1.71631 0.792031,0.84334 1.19669,1.76785 0.899252,2.05447 -0.297437,0.28662 -1.043328,-0.14113 -1.657533,-0.95056 -1.050951,-1.38498 -1.19051,-1.30155 -2.368876,1.4161 -1.285993,2.96588 -2.697734,3.59368 -4.397627,1.95562 z M 36.976607,164.70655 c -0.33154,-0.31497 1.15433,-0.94099 3.301934,-1.39117 3.040485,-0.63733 3.904732,-1.15312 3.904732,-2.33037 0,-1.28135 -0.57481,-1.51306 -3.769861,-1.51959 -2.073427,-0.004 -4.038325,-0.26642 -4.366442,-0.5826 -0.328117,-0.31618 -0.08268,-0.59571 0.545416,-0.62118 0.628096,-0.0255 2.865057,-0.31962 4.971026,-0.65365 3.356088,-0.53232 3.829028,-0.43849 3.829028,0.75957 0,0.75179 0.18938,1.84247 0.42085,2.42371 0.231458,0.58125 -0.04061,1.61699 -0.604595,2.30165 -1.109011,1.3463 -7.247007,2.54945 -8.232088,1.61363 z m 135.781563,-0.96107 c -1.93677,-1.86632 -2.04628,-3.71789 -0.35734,-6.04148 1.54935,-2.13156 5.22091,-2.29008 7.08436,-0.30588 1.90414,2.02752 1.68409,5.24626 -0.45748,6.69172 -2.41131,1.62751 -4.33276,1.52197 -6.26954,-0.34436 z m 6.29629,-3.27458 c -0.35282,-2.27642 -2.67927,-3.55734 -4.48253,-2.46806 -2.22271,1.34267 -2.25453,4.07965 -0.0568,4.87888 2.50526,0.91102 4.86025,-0.33972 4.53925,-2.41082 z M 35.71763,155.071 c 8.08e-4,-0.28499 1.543158,-1.77493 3.427445,-3.31096 l 3.425977,-2.79279 -3.425977,0.49727 c -2.310447,0.33536 -3.425976,0.21201 -3.425976,-0.3788 0,-0.50117 1.351622,-0.87608 3.158519,-0.87608 1.737184,0 3.732312,-0.21217 4.433617,-0.4715 2.256219,-0.83431 1.409882,1.53987 -1.3375,3.75198 l -2.627132,2.11528 3.02292,0.0209 c 4.917446,0.034 3.444081,1.41358 -1.815221,1.69969 -2.660977,0.14475 -4.83748,0.03 -4.836672,-0.25498 z m 136.23444,-3.24539 c 0,-4.75149 5.75621,-7.10577 8.41847,-3.44312 1.39407,1.91792 1.66319,4.92984 0.50226,5.62123 -0.41393,0.24653 -0.72297,-0.55636 -0.68674,-1.78419 0.0835,-2.82902 -0.6742,-4.00989 -2.57286,-4.00989 -2.75305,0 -4.04891,0.92575 -4.04891,2.89248 0,1.56703 0.31627,1.86977 1.61223,1.5432 1.04782,-0.26405 1.61221,-0.0239 1.61221,0.6862 0,0.69599 -0.87766,1.09246 -2.41833,1.09246 -2.20506,0 -2.41833,-0.22915 -2.41833,-2.59837 z M 35.719099,144.49804 c 0,-0.69793 0.477218,-0.9389 1.275098,-0.64386 0.701304,0.25933 2.696432,0.4715 4.433616,0.4715 1.737186,0 3.158512,0.36752 3.158512,0.81672 0,0.49304 -1.757072,0.7482 -4.43361,0.64386 -3.232283,-0.12602 -4.433616,-0.47507 -4.433616,-1.28822 z M 171.95207,142.7721 c 0,-2.23768 0.14166,-2.33038 3.56156,-2.33038 1.95887,0 4.13537,-0.21216 4.83668,-0.4715 0.99411,-0.36761 1.2751,0.0604 1.2751,1.94197 0,1.32743 -0.36275,2.41349 -0.80611,2.41349 -0.44336,0 -0.80612,-0.64085 -0.80612,-1.42411 0,-0.78327 -0.54412,-1.42412 -1.20916,-1.42412 -0.67969,0 -1.2204,0.70865 -1.23481,1.61832 -0.0239,1.51056 -0.097,1.5278 -1.09652,0.25893 -1.43413,-1.82054 -2.9084,-1.72209 -2.9084,0.19419 0,0.85447 -0.36276,1.55359 -0.80612,1.55359 -0.44336,0 -0.8061,-1.04867 -0.8061,-2.33038 z M 35.719099,141.63322 c 0,-0.53392 1.541689,-1.32198 3.425976,-1.75125 l 3.425977,-0.78047 -3.425977,-1.3897 c -3.047699,-1.23626 -4.55336,-2.70762 -2.770731,-2.70762 1.405963,0 9.166972,3.99942 8.677081,4.4715 -0.285829,0.27544 -2.502534,1.09198 -4.926009,1.81455 -3.334614,0.99422 -4.406317,1.07764 -4.406317,0.34299 z m 136.232971,-3.10499 c 0,-0.38783 0.81618,-1.56597 1.81375,-2.61807 l 1.81375,-1.91294 -1.76169,0.41764 c -1.08712,0.25771 -1.92627,0.004 -2.19152,-0.66172 -0.3266,-0.82017 0.41929,-1.07933 3.10647,-1.07933 1.94495,0 4.11006,-0.21218 4.81136,-0.47151 0.9958,-0.36823 1.27511,0.0624 1.27511,1.96636 0,2.74647 -1.8109,3.90517 -4.02288,2.574 -1.09292,-0.65772 -1.76093,-0.48056 -3.11766,0.82682 -0.94969,0.91515 -1.72669,1.34659 -1.72669,0.95875 z m 7.65806,-3.52405 c 0.28368,-0.4423 -0.41054,-0.77679 -1.61223,-0.77679 -1.20167,0 -1.8959,0.33449 -1.61222,0.77679 0.27402,0.42724 0.99951,0.77679 1.61222,0.77679 0.61272,0 1.33821,-0.34955 1.61223,-0.77679 z M 40.354243,133.65641 c -3.6329,-0.27603 -3.829033,-0.40812 -3.829033,-2.57875 0,-1.2583 0.387196,-2.28782 0.860435,-2.28782 0.493592,0 0.642273,0.66236 0.348734,1.55358 -0.399065,1.21161 -0.144859,1.55359 1.154846,1.55359 0.943967,0 1.666547,-0.5052 1.666547,-1.16519 0,-0.64085 0.40156,-1.16518 0.892357,-1.16518 0.490797,0 0.697272,0.48989 0.458836,1.08864 -0.257768,0.6473 0.197473,1.24765 1.122923,1.48086 1.227031,0.30921 1.556437,-0.0131 1.556437,-1.52288 0,-1.06085 0.354556,-1.70395 0.794854,-1.44173 0.437171,0.26036 0.645511,1.24228 0.462961,2.18202 -0.182539,0.93976 -0.358845,1.97082 -0.391802,2.29124 -0.0329,0.32043 -0.331958,0.51959 -0.664481,0.44258 -0.332523,-0.077 -2.327646,-0.27094 -4.433614,-0.43096 z m 130.791707,-2.29603 c 0,-0.44409 0.70992,-1.67713 1.57759,-2.74008 l 1.5776,-1.93263 -1.98065,0.36485 c -1.08936,0.20066 -1.98065,0.033 -1.98065,-0.37262 0,-0.4056 2.00335,-1.08736 4.45188,-1.51503 4.27206,-0.74617 4.47049,-0.70613 4.91257,0.99114 0.6522,2.50404 -0.34191,3.6217 -2.80852,3.15761 -1.45885,-0.27449 -2.68932,0.10923 -3.93607,1.22743 -0.99757,0.89473 -1.81375,1.26342 -1.81375,0.81933 z m 7.25501,-4.12412 c 0,-0.42723 -0.74691,-0.77679 -1.6598,-0.77679 -0.91289,0 -1.43561,0.34956 -1.16159,0.77679 0.27401,0.42724 1.02092,0.77679 1.6598,0.77679 0.63888,0 1.16159,-0.34955 1.16159,-0.77679 z m -136.837548,-0.2113 c -3.168732,-0.58702 -4.232089,-1.12298 -4.232089,-2.1332 0,-2.31748 2.164904,-3.48626 4.360332,-2.35404 1.466474,0.75628 2.284194,0.76836 3.669066,0.0542 2.923481,-1.50769 2.856036,-0.23177 -0.07884,1.49246 -2.299391,1.35086 -2.167044,2.06754 0.31214,1.69034 0.332523,-0.0506 0.604584,0.43234 0.604584,1.07319 0,0.64085 -0.09067,1.11927 -0.201532,1.06314 -0.110837,-0.0561 -2.105961,-0.45485 -4.43361,-0.88605 z m -0.07711,-3.08668 c -0.452191,-0.43574 -1.481363,-0.53355 -2.287048,-0.21735 -1.378965,0.5412 -1.370324,0.6099 0.147343,1.17114 1.95789,0.72405 3.272671,0.13797 2.139705,-0.95379 z m 128.496188,-2.3124 c -0.69018,-0.94954 -1.25488,-2.32239 -1.25488,-3.05079 0,-1.46632 3.62264,-4.54429 5.34845,-4.54429 1.74844,0 4.3249,2.93619 4.3249,4.92875 0,4.05282 -6.02389,5.96072 -8.41847,2.66633 z m 5.83891,-0.75931 c 2.58029,-2.48645 -0.20431,-5.79625 -3.6162,-4.29823 -1.77984,0.78145 -2.55453,3.53057 -1.32795,4.71252 0.87587,0.84402 3.90144,0.5905 4.94415,-0.41429 z M 46.580073,119.53372 c 0.629896,-1.91242 -0.704616,-2.72737 -2.00111,-1.22201 -1.459079,1.69415 -4.621288,1.45833 -5.23007,-0.39 -0.53603,-1.62746 0.02681,-3.11412 1.178984,-3.11412 0.37569,0 0.493347,0.69912 0.261464,1.55359 -0.509472,1.87736 1.485394,2.13641 2.990879,0.38839 1.267817,-1.47206 2.750825,-1.48588 3.998454,-0.0373 1.05511,1.2251 0.423369,4.30964 -0.882649,4.30964 -0.44336,0 -0.585536,-0.66969 -0.315952,-1.48821 z m -2.195268,-6.13896 c -5.632281,-1.75255 -5.076835,-3.39803 0.603063,-1.78658 2.437662,0.69159 4.432789,1.69438 4.433625,2.22842 0.0022,1.12566 6.19e-4,1.12557 -5.036688,-0.44184 z m 1.299241,-3.6085 c -4.123715,-1.63546 -4.136972,-1.65197 -3.002537,-3.73836 2.477952,-4.55733 8.353712,-2.98775 8.353712,2.23151 0,1.4039 -0.272061,2.68688 -0.604584,2.85106 -0.332512,0.16418 -2.468479,-0.44071 -4.746591,-1.34421 z m 4.545071,-1.56349 c 0,-0.631 -0.908699,-1.72102 -2.019321,-2.42226 -1.62728,-1.02746 -2.253277,-1.08788 -3.224448,-0.31119 -1.70616,1.36448 -1.514101,1.90959 1.011675,2.87135 3.167112,1.20596 4.232094,1.17126 4.232094,-0.1379 z m -0.04995,-6.01392 c -4.5395,-5.775444 -4.654073,-5.267473 1.188089,-5.267473 4.158551,0 5.170117,0.226037 4.830319,1.079347 -0.238745,0.599519 -1.088849,0.913275 -1.912273,0.705777 -1.772459,-0.446653 -3.099369,2.554789 -1.717947,3.885979 0.487399,0.46967 0.886183,1.1336 0.886183,1.47538 0,1.31629 -1.38968,0.51882 -3.274371,-1.87901 z m 0.856044,-2.937096 c 0,-0.427236 -0.362755,-0.776793 -0.806115,-0.776793 -0.44336,0 -0.806115,0.349557 -0.806115,0.776793 0,0.427236 0.362755,0.776796 0.806115,0.776796 0.44336,0 0.806115,-0.34956 0.806115,-0.776796 z m 112.648449,4.978896 c -0.29401,-0.28331 0.0171,-1.54311 0.69138,-2.79955 1.18242,-2.203405 1.16886,-2.255025 -0.38223,-1.455104 -2.07477,1.069994 -2.52089,1.044894 -2.5172,-0.141648 0.001,-0.534045 1.71262,-1.670104 3.80214,-2.524574 2.08951,-0.854472 4.04,-1.656199 4.33439,-1.781615 0.2944,-0.125417 0.77556,0.694521 1.06925,1.822085 0.64654,2.482341 -0.80279,4.442056 -2.82724,3.822896 -1.01459,-0.3103 -1.78087,0.16089 -2.54393,1.56428 -0.60061,1.10459 -1.33255,1.77654 -1.62656,1.49323 z m 5.48013,-5.030577 c 0.73896,-1.152166 0.044,-1.630717 -1.52536,-1.050396 -0.72595,0.268442 -1.11922,0.801005 -0.87391,1.183473 0.60334,0.94072 1.75142,0.87705 2.39927,-0.133077 z M 52.848981,93.977027 c -1.884289,-1.136995 -3.425979,-2.319758 -3.425979,-2.628365 0,-1.080954 3.54248,-3.72879 4.988665,-3.72879 1.793215,0 4.684673,2.668493 4.684673,4.323424 0,1.515405 -1.471117,4.241938 -2.245165,4.161142 -0.31693,-0.03308 -2.11791,-0.990415 -4.002194,-2.127411 z m 4.327018,-1.99685 c -0.542319,-2.082165 -2.700232,-3.135955 -4.818038,-2.352831 -1.980826,0.732464 -1.631884,1.400867 1.684848,3.227429 3.445775,1.897621 3.827489,1.791071 3.13319,-0.874598 z m 101.600151,2.763857 c -3.97862,-4.236416 2.46969,-10.449851 6.65716,-6.414686 2.11844,2.041382 2.14337,4.283559 0.0699,6.281652 -2.01191,1.938724 -4.97615,1.997344 -6.72702,0.133034 z m 5.75968,-1.065184 c 1.51723,-1.462046 1.16656,-4.33977 -0.59447,-4.87837 -3.0762,-0.940836 -6.49787,3.222614 -4.34968,5.292659 0.87587,0.844021 3.90143,0.590498 4.94415,-0.414289 z m -9.95763,-8.056122 c 0.29702,-1.525664 0.75611,-3.360835 1.02019,-4.078158 0.30513,-0.828811 -0.40831,-0.508035 -1.95717,0.88 -1.73625,1.555957 -2.55432,1.89041 -2.84408,1.162754 -0.23678,-0.594601 0.89822,-1.816101 2.71601,-2.922974 1.71753,-1.045829 3.12278,-2.425482 3.12278,-3.065895 0,-0.849072 0.24089,-0.93226 0.88956,-0.307195 0.64865,0.625067 0.5605,1.938801 -0.32548,4.851287 l -1.21503,3.994092 2.64432,-1.943563 c 3.87267,-2.8464 4.13681,-1.503541 0.31022,1.577199 -4.19191,3.37485 -5.04147,3.346109 -4.36132,-0.147547 z m -89.655226,-7.789736 -3.443658,-3.306626 1.809276,-1.221168 c 2.249759,-1.518481 2.638868,-1.518669 4.212754,-0.0021 1.00125,0.964839 1.076047,1.559615 0.358574,2.851475 -0.740136,1.332649 -0.636802,1.822439 0.562852,2.667738 0.884212,0.623039 1.165644,1.29065 0.706646,1.676319 -0.434651,0.365213 -2.244166,-0.781513 -4.206444,-2.665703 z m 2.234491,-2.277778 c 0,-1.252251 -2.145524,-2.43942 -2.971033,-1.643941 -0.574134,0.553255 1.24751,2.833509 2.263626,2.833509 0.389076,0 0.707407,-0.535305 0.707407,-1.189568 z m 80.347385,4.44497 c -1.239,-1.319293 -1.11091,-1.601329 2.09187,-4.605752 l 3.4117,-3.200401 1.44834,1.88698 c 0.79658,1.037838 1.09005,1.886979 0.65215,1.886979 -0.43789,0 -1.03125,-0.36653 -1.31857,-0.814512 -0.35657,-0.555967 -0.88659,-0.523252 -1.66973,0.103062 -0.92735,0.741637 -0.95344,1.142717 -0.13608,2.091749 0.86289,1.001901 0.75602,1.096113 -0.72834,0.64213 -2.107,-0.644412 -3.2016,0.709912 -1.84597,2.283954 1.41545,1.64348 -0.34189,1.390591 -1.90537,-0.274189 z M 72.800245,76.275146 c 0,-0.429192 -1.218635,-2.0624 -2.708071,-3.629347 -2.598418,-2.73363 -2.648598,-2.900869 -1.239192,-4.12997 1.833448,-1.598898 3.73484,-0.955294 4.745527,1.606313 0.475991,1.206424 1.402564,1.961887 2.406236,1.961887 0.897699,0 1.632177,0.340818 1.632177,0.757372 0,0.439172 -1.100707,0.54731 -2.619864,0.257387 -2.401361,-0.458286 -2.525229,-0.389133 -1.485169,0.829134 0.859465,1.006725 0.908352,1.547237 0.201532,2.228348 -0.543089,0.523331 -0.933176,0.573024 -0.933176,0.118876 z m -0.806104,-5.744702 c 0,-0.863102 -0.537409,-1.553584 -1.209177,-1.553584 -1.457598,0 -1.55838,0.906357 -0.241829,2.175019 1.300892,1.253576 1.451006,1.189287 1.451006,-0.621435 z m 70.612879,4.782458 c -0.27564,-0.42979 0.59158,-1.934348 1.92719,-3.34346 2.52239,-2.661202 2.99931,-3.769374 1.62227,-3.769374 -0.44336,0 -0.80612,-0.349556 -0.80612,-0.776791 0,-1.236077 1.03671,-0.873843 3.51899,1.229571 2.31613,1.962613 2.43624,3.73917 0.128,1.893176 -0.67576,-0.54043 -1.24339,-0.677631 -1.26142,-0.304891 -0.0639,1.320773 -4.63533,5.841335 -5.12891,5.071769 z m -4.05336,-3.248641 c -0.23988,-0.629981 -0.73124,-2.543646 -1.09193,-4.252589 l -0.65579,-3.107168 -1.13511,2.461014 c -1.09095,2.365302 -1.21985,2.418775 -3.3146,1.37494 -1.54697,-0.77087 -2.06182,-1.519738 -1.77401,-2.580326 0.48025,-1.769625 -2.59597,-3.088424 -4.0148,-1.721189 -1.00648,0.969859 -2.98717,1.150704 -2.97211,0.271362 0.005,-0.320426 1.18443,-1.364244 2.61986,-2.319595 1.43544,-0.955351 3.4328,-2.313127 4.43859,-3.017279 l 1.82869,-1.280276 -0.38109,4.19416 c -0.56844,6.255841 0.532,7.173671 3.3022,2.754234 1.25235,-1.997935 2.5517,-3.63261 2.88745,-3.63261 0.33575,0 0.61046,1.747783 0.61046,3.883961 0,4.39279 0.93869,4.995825 2.41833,1.553585 0.55094,-1.281708 1.32045,-2.330377 1.71002,-2.330377 1.1364,0 0.82742,0.925191 -1.67961,5.029381 -1.58257,2.590796 -2.50415,3.486734 -2.79655,2.718772 z m -7.71332,-10.07853 c 0,-0.427236 -0.36275,-0.776792 -0.80611,-0.776792 -0.44336,0 -0.80611,0.349556 -0.80611,0.776792 0,0.427236 0.36275,0.776793 0.80611,0.776793 0.44336,0 0.80611,-0.349557 0.80611,-0.776793 z m -54.308458,5.788944 c -1.272811,-1.941383 -2.089002,-3.7468 -1.81375,-4.012038 0.588773,-0.567359 0.365437,-0.804334 3.632995,3.854837 1.585016,2.260054 2.182248,3.689224 1.541331,3.688374 -0.575503,-7.65e-4 -2.087765,-1.589792 -3.360576,-3.531173 z m 4.071251,-2.258732 C 77.653026,62.9938 77.01706,62.083075 77.961942,61.733677 c 0.684516,-0.253117 1.526226,-0.03778 1.870466,0.478515 0.34425,0.516301 1.442971,1.605391 2.441604,2.420203 l 1.815693,1.481475 -0.514562,-3.617654 c -0.319949,-2.249347 -0.205995,-3.617653 0.301281,-3.617653 0.90681,0 1.934904,8.634687 1.124728,9.446271 -0.281758,0.28224 -2.260857,-0.981761 -4.398019,-2.808891 z m 7.510196,-3.115072 c 0.266728,-2.335087 0.650766,-4.405389 0.853416,-4.60067 0.370518,-0.357044 7.210764,5.482226 7.210764,6.155569 0,0.198186 -0.54413,0.360338 -1.209167,0.360338 -0.665045,0 -1.209166,-0.373868 -1.209166,-0.830819 0,-1.678854 -3.623649,-0.36056 -3.885111,1.413413 -0.141677,0.96128 -0.704909,1.747783 -1.251647,1.747783 -0.725888,0 -0.863222,-1.145295 -0.509089,-4.245614 z m 2.790028,-1.138257 c 0.255077,-0.397715 0.09512,-0.942678 -0.355489,-1.211032 -0.450597,-0.268353 -0.819259,0.05705 -0.819259,0.723117 0,1.364455 0.483712,1.56536 1.174748,0.487915 z m 5.618562,-1.975798 c -0.8943,-4.70423 -0.32266,-5.483269 3.36841,-4.590564 3.587031,0.867538 4.604861,4.711888 1.929971,7.289479 -2.901851,2.796308 -4.398651,2.033862 -5.298381,-2.698915 z m 4.512081,1.510723 c 1.27574,-1.481256 -0.14741,-5.026145 -2.017811,-5.026145 -1.28714,0 -1.53388,1.534175 -0.71837,4.466555 0.56953,2.047899 1.32185,2.201762 2.736181,0.55959 z m 9.65354,0.4114 c 0,-1.886004 -3.59698,-2.20924 -4.32207,-0.388395 -0.25521,0.640853 -0.83803,1.165187 -1.29518,1.165187 -0.45715,0 0.16628,-1.742746 1.3854,-3.872768 1.21911,-2.130024 2.39795,-3.873593 2.61962,-3.874599 0.22169,-10e-4 1.33191,1.916518 2.46718,4.261166 1.88826,3.899818 1.93978,4.262994 0.60458,4.262994 -0.92212,0 -1.45953,-0.572039 -1.45953,-1.553585 z m -0.80611,-3.061324 c 0,-0.402023 -0.36276,-0.946986 -0.80612,-1.211032 -0.44336,-0.264047 -0.80611,0.06488 -0.80611,0.730947 0,0.666068 0.36275,1.211033 0.80611,1.211033 0.44336,0 0.80612,-0.328927 0.80612,-0.730948 z"
       id="path397"
       inkscape:export-filename="C:\Users\haroldde\Documents\INKscape\path397.png"
       inkscape:export-xdpi="96"
       inkscape:export-ydpi="96" />
  </g>
</svg>
